<svg width="88" height="87" viewBox="0 0 88 87" fill="none" xmlns="http://www.w3.org/2000/svg">
<path d="M87.8753 37.074L76.3503 43.8371L87.7408 50.819L74.6896 53.6955L83.366 63.8535L70.0612 62.5593L75.1701 74.8987L62.9186 69.5605L63.9604 82.8753L53.9616 74.0154L50.8323 87L44.0627 75.4863L37.07 86.8694L34.1945 73.8272L24.0227 82.4951L25.3221 69.2033L12.9706 74.3111L18.314 62.0677L4.98612 63.1085L13.8547 53.1195L0.857422 49.9933L12.3824 43.2303L0.988124 36.2483L14.0431 33.3718L5.3667 23.2138L18.6716 24.5081L13.5587 12.1687L25.8141 17.5069L24.7685 4.19204L34.7712 13.052L37.9004 0.0673828L44.6701 11.5811L51.6589 0.197957L54.5382 13.2402L64.7062 4.57224L63.4107 17.8641L75.7622 12.7601L70.4187 24.9996L83.7466 23.9589L74.878 33.9479L87.8753 37.074Z" fill="#92E3A9"/>
<path opacity="0.5" d="M77.9457 38.5488L69.0502 43.768L77.8458 49.1561L67.7701 51.3759L74.4667 59.2181L64.1988 58.2196L68.1429 67.7439L58.6862 63.6231L59.4896 73.8964L51.7704 67.0603L49.3562 77.0801L44.1319 68.1933L38.7346 76.9802L36.5165 66.9144L28.6666 73.6045L29.6661 63.3466L20.1324 67.2869L24.2573 57.8394L13.974 58.6421L20.8167 50.9304L10.7871 48.5186L19.6826 43.2994L10.8871 37.9113L20.9628 35.6915L14.2661 27.8493L24.5341 28.8478L20.5899 19.3273L30.0467 23.4443L29.2432 13.171L36.9624 20.0071L39.3728 9.9873L44.6009 18.8741L49.9944 10.0872L52.2163 20.153L60.0662 13.4629L59.0629 23.7208L68.5966 19.7805L64.4756 29.228L74.7589 28.4253L67.9161 36.137L77.9457 38.5488Z" fill="white"/>
<path d="M49.2215 22.0117L47.5454 24.8997L50.74 26.8737L53.7846 24.2891L49.2215 22.0117Z" fill="white" stroke="#1C79F6" stroke-linecap="round" stroke-linejoin="round"/>
<path d="M42.225 25.9634L41.0063 27.634L42.3749 28.3944L43.4397 27.3306L42.225 25.9634Z" fill="white" stroke="#1C79F6" stroke-linecap="round" stroke-linejoin="round"/>
<path d="M50.2866 16.0859L44.6587 17L44.9624 18.974L50.7403 17.7565L50.2866 16.0859Z" fill="white" stroke="#1C79F6" stroke-linecap="round" stroke-linejoin="round"/>
<path d="M65.9479 25.0494L61.996 22.772L61.5386 23.9856L67.0127 27.4804L65.9479 25.0494Z" fill="white" stroke="#1C79F6" stroke-linecap="round" stroke-linejoin="round"/>
<path d="M37.2044 18.0598L34.1636 20.7942L36.9007 22.6184L39.7915 17.3032L37.2044 18.0598Z" fill="white" stroke="#1C79F6" stroke-linecap="round" stroke-linejoin="round"/>
<path d="M20.6284 23.8359L19.4136 25.3529L21.6932 26.5703L22.3006 25.0495L20.6284 23.8359Z" fill="#1C79F6" stroke="#1C79F6" stroke-linecap="round" stroke-linejoin="round"/>
<path d="M75.0741 24.1392L73.8594 25.6561L76.139 26.8736L76.7464 25.3527L75.0741 24.1392Z" fill="#1C79F6" stroke="#1C79F6" stroke-linecap="round" stroke-linejoin="round"/>
<path d="M19.1059 27.0273L17.8911 28.5443L20.1707 29.7618L20.782 28.2409L19.1059 27.0273Z" fill="#1C79F6" stroke="#1C79F6" stroke-linecap="round" stroke-linejoin="round"/>
<path d="M14.5469 22.3149L15.0005 24.4426L16.8265 24.2889L14.5469 22.3149Z" fill="#1C79F6" stroke="#1C79F6" stroke-linecap="round" stroke-linejoin="round"/>
<path d="M75.1318 30.4264L77.2692 30.0077L77.1462 28.1797L75.1318 30.4264Z" fill="#1C79F6" stroke="#1C79F6" stroke-linecap="round" stroke-linejoin="round"/>
<path d="M67.4702 23.986L69.6076 23.5674L69.4846 21.7432L67.4702 23.986Z" fill="#1C79F6" stroke="#1C79F6" stroke-linecap="round" stroke-linejoin="round"/>
<path d="M26.1025 16.8462L26.56 18.9738L28.386 18.8202L26.1025 16.8462Z" fill="#1C79F6" stroke="#1C79F6" stroke-linecap="round" stroke-linejoin="round"/>
<path d="M71.5757 30.9756L72.0331 33.1032L73.8592 32.9496L71.5757 30.9756Z" fill="#1C79F6" stroke="#1C79F6" stroke-linecap="round" stroke-linejoin="round"/>
<path d="M12.4169 21.7085L10.7446 22.7723C10.7446 22.7723 12.7206 23.9859 13.0243 23.5404C13.3279 23.0949 12.4169 21.7085 12.4169 21.7085Z" fill="#1C79F6" stroke="#1C79F6" stroke-linecap="round" stroke-linejoin="round"/>
<path d="M20.6284 12.7295L19.7173 13.9431L21.3818 14.5307L21.847 13.0329L20.6284 12.7295Z" fill="#1C79F6" stroke="#1C79F6" stroke-linecap="round" stroke-linejoin="round"/>
</svg>
